  0
SECTION
  2
HEADER
  9
$ACADVER
  1
AC1009
  9
$INSBASE
 10
0.000000
 20
0.000000
  9
$LIMMIN
 10
-7510.122000
 20
-31384.378000
  9
$LIMMAX
 10
104145.472000
 20
34868.992000
  9
$EXTMIN
 10
-7510.122000
 20
-31384.378000
  9
$EXTMAX
 10
104145.472000
 20
34868.992000
  9
$ATTMODE
 70
0
  9
$LUNITS
 70
2
  9
$LUPREC
 70
3
  9
$THICKNESS
 40
39.800000
  0
ENDSEC
  0
SECTION
  2
TABLES
  0
TABLE
  2
LTYPE
 70
1
  0
LTYPE
  3
Solid Line
  2
CONTINUOUS
 70
0
 72
65
 73
0
 40
0.000000
  0
ENDTAB
  0
TABLE
  2
LAYER
 70
4
  0
LAYER
  2
ASSEMBLY
 70
0
 62
2
  6
CONTINUOUS
  0
LAYER
  2
ASSEMBLY
 70
0
 62
7
  6
CONTINUOUS
  0
LAYER
  2
ASSEMBLY
 70
0
 62
152
  6
CONTINUOUS
  0
LAYER
  2
ASSEMBLY
 70
0
 62
254
  6
CONTINUOUS
  0
ENDTAB
  0
TABLE
  2
STYLE
 70
1
  0
STYLE
  2
STANDARD
 70
0
 40
0.000000
 41
1.000000
 50
0.000000
 71
0
 42
0.200000
  3
txt
  0
ENDTAB
  0
ENDSEC
  0
SECTION
  2
BLOCKS
  0
BLOCK
  8
0
  2
FIGURE_CIRCLE
 70
0
 10
0.000000
 20
0.000000
  0
CIRCLE
  8
0
 10
0.000000
 20
0.000000
 40
0.500000
  0
ENDBLK
  0
BLOCK
  8
0
  2
FIGURE_SQUARE
 70
0
 10
0.000000
 20
0.000000
  0
POLYLINE
  8
0
 66
1
 70
1
 40
0.000000
 41
0.000000
 39
0.000000
  0
VERTEX
  8
0
 10
-0.500000
 20
-0.500000
 40
0.000000
 41
0.000000
 42
0.000000
  0
VERTEX
  8
0
 10
-0.500000
 20
0.500000
 40
0.000000
 41
0.000000
 42
0.000000
  0
VERTEX
  8
0
 10
0.500000
 20
0.500000
 40
0.000000
 41
0.000000
 42
0.000000
  0
VERTEX
  8
0
 10
0.500000
 20
-0.500000
 40
0.000000
 41
0.000000
 42
0.000000
  0
SEQEND
  0
ENDBLK
  0
BLOCK
  8
0
  2
FIGURE_HEX
 70
0
 10
0.000000
 20
0.000000
  0
POLYLINE
  8
0
 66
1
 70
1
 40
0.000000
 41
0.000000
 39
0.000000
  0
VERTEX
  8
0
 10
-0.500000
 20
0.000000
 40
0.000000
 41
0.000000
 42
0.000000
  0
VERTEX
  8
0
 10
-0.250000
 20
0.500000
 40
0.000000
 41
0.000000
 42
0.000000
  0
VERTEX
  8
0
 10
0.250000
 20
0.500000
 40
0.000000
 41
0.000000
 42
0.000000
  0
VERTEX
  8
0
 10
0.500000
 20
0.000000
 40
0.000000
 41
0.000000
 42
0.000000
  0
VERTEX
  8
0
 10
0.250000
 20
-0.500000
 40
0.000000
 41
0.000000
 42
0.000000
  0
VERTEX
  8
0
 10
-0.250000
 20
-0.500000
 40
0.000000
 41
0.000000
 42
0.000000
  0
SEQEND
  0
ENDBLK
  0
BLOCK
  8
0
  2
FIGURE_OCT
 70
0
 10
0.000000
 20
0.000000
  0
POLYLINE
  8
0
 66
1
 70
1
 40
0.000000
 41
0.000000
 39
0.000000
  0
VERTEX
  8
0
 10
-0.500000
 20
-0.207100
 40
0.000000
 41
0.000000
 42
0.000000
  0
VERTEX
  8
0
 10
-0.500000
 20
0.207100
 40
0.000000
 41
0.000000
 42
0.000000
  0
VERTEX
  8
0
 10
-0.207100
 20
0.500000
 40
0.000000
 41
0.000000
 42
0.000000
  0
VERTEX
  8
0
 10
0.207100
 20
0.500000
 40
0.000000
 41
0.000000
 42
0.000000
  0
VERTEX
  8
0
 10
0.500000
 20
0.207100
 40
0.000000
 41
0.000000
 42
0.000000
  0
VERTEX
  8
0
 10
0.500000
 20
-0.207100
 40
0.000000
 41
0.000000
 42
0.000000
  0
VERTEX
  8
0
 10
0.207100
 20
-0.500000
 40
0.000000
 41
0.000000
 42
0.000000
  0
VERTEX
  8
0
 10
-0.207100
 20
-0.500000
 40
0.000000
 41
0.000000
 42
0.000000
  0
SEQEND
  0
ENDBLK
  0
BLOCK
  8
0
  2
FIGURE_OBLONG
 70
0
 10
0.000000
 20
0.000000
  0
POLYLINE
  8
0
 66
1
 70
1
 40
0.000000
 41
0.000000
 39
0.000000
  0
VERTEX
  8
0
 10
-0.500000
 20
-0.125000
 40
0.000000
 41
0.000000
 42
0.000000
  0
VERTEX
  8
0
 10
-0.500000
 20
0.125000
 40
0.000000
 41
0.000000
 42
0.000000
  0
VERTEX
  8
0
 10
-0.416000
 20
0.375000
 40
0.000000
 41
0.000000
 42
0.000000
  0
VERTEX
  8
0
 10
-0.250000
 20
0.500000
 40
0.000000
 41
0.000000
 42
0.000000
  0
VERTEX
  8
0
 10
0.250000
 20
0.500000
 40
0.000000
 41
0.000000
 42
0.000000
  0
VERTEX
  8
0
 10
0.416000
 20
0.375000
 40
0.000000
 41
0.000000
 42
0.000000
  0
VERTEX
  8
0
 10
0.500000
 20
0.125000
 40
0.000000
 41
0.000000
 42
0.000000
  0
VERTEX
  8
0
 10
0.500000
 20
-0.125000
 40
0.000000
 41
0.000000
 42
0.000000
  0
VERTEX
  8
0
 10
0.416000
 20
-0.375000
 40
0.000000
 41
0.000000
 42
0.000000
  0
VERTEX
  8
0
 10
0.250000
 20
-0.500000
 40
0.000000
 41
0.000000
 42
0.000000
  0
VERTEX
  8
0
 10
-0.250000
 20
-0.500000
 40
0.000000
 41
0.000000
 42
0.000000
  0
VERTEX
  8
0
 10
-0.416000
 20
-0.375000
 40
0.000000
 41
0.000000
 42
0.000000
  0
SEQEND
  0
ENDBLK
  0
BLOCK
  8
0
  2
FIGURE_TRI
 70
0
 10
0.000000
 20
0.000000
  0
POLYLINE
  8
0
 66
1
 70
1
 40
0.000000
 41
0.000000
 39
0.000000
  0
VERTEX
  8
0
 10
-0.500000
 20
-0.500000
 40
0.000000
 41
0.000000
 42
0.000000
  0
VERTEX
  8
0
 10
0.000000
 20
0.500000
 40
0.000000
 41
0.000000
 42
0.000000
  0
VERTEX
  8
0
 10
0.500000
 20
-0.500000
 40
0.000000
 41
0.000000
 42
0.000000
  0
SEQEND
  0
ENDBLK
  0
BLOCK
  8
0
  2
FIGURE_CROSS
 70
0
 10
0.000000
 20
0.000000
  0
POLYLINE
  8
0
 66
1
 70
0
 40
0.000000
 41
0.000000
 39
0.000000
  0
VERTEX
  8
0
 10
-0.500000
 20
0.000000
 40
0.000000
 41
0.000000
 42
0.000000
  0
VERTEX
  8
0
 10
0.500000
 20
0.000000
 40
0.000000
 41
0.000000
 42
0.000000
  0
SEQEND
  0
POLYLINE
  8
0
 66
1
 70
0
 40
0.000000
 41
0.000000
 39
0.000000
  0
VERTEX
  8
0
 10
0.000000
 20
0.500000
 40
0.000000
 41
0.000000
 42
0.000000
  0
VERTEX
  8
0
 10
0.000000
 20
-0.500000
 40
0.000000
 41
0.000000
 42
0.000000
  0
SEQEND
  0
ENDBLK
  0
BLOCK
  8
0
  2
FIGURE_DIAMOND
 70
0
 10
0.000000
 20
0.000000
  0
POLYLINE
  8
0
 66
1
 70
1
 40
0.000000
 41
0.000000
 39
0.000000
  0
VERTEX
  8
0
 10
-0.500000
 20
0.000000
 40
0.000000
 41
0.000000
 42
0.000000
  0
VERTEX
  8
0
 10
0.000000
 20
0.500000
 40
0.000000
 41
0.000000
 42
0.000000
  0
VERTEX
  8
0
 10
0.500000
 20
0.000000
 40
0.000000
 41
0.000000
 42
0.000000
  0
VERTEX
  8
0
 10
0.000000
 20
-0.500000
 40
0.000000
 41
0.000000
 42
0.000000
  0
SEQEND
  0
ENDBLK
  0
ENDSEC
  0
SECTION
  2
ENTITIES
  0
POLYLINE
  8
ASSEMBLY
 66
1
 70
0
 40
0.000000
 41
0.000000
 39
0.000000
  0
VERTEX
  8
ASSEMBLY
 10
2970.669000
 20
2302.126000
 40
7.874000
 41
7.874000
 42
0.000000
  0
VERTEX
  8
ASSEMBLY
 10
2970.669000
 20
2538.346000
 40
7.874000
 41
7.874000
 42
0.000000
  0
VERTEX
  8
ASSEMBLY
 10
2986.417000
 20
2554.094000
 40
7.874000
 41
7.874000
 42
0.000000
  0
VERTEX
  8
ASSEMBLY
 10
2986.417000
 20
2561.969000
 40
7.874000
 41
7.874000
 42
0.000000
  0
VERTEX
  8
ASSEMBLY
 10
2980.512000
 20
2561.969000
 40
7.874000
 41
7.874000
 42
0.000000
  0
VERTEX
  8
ASSEMBLY
 10
2956.890000
 20
2538.346000
 40
7.874000
 41
7.874000
 42
0.000000
  0
VERTEX
  8
ASSEMBLY
 10
2706.890000
 20
2538.346000
 40
7.874000
 41
7.874000
 42
0.000000
  0
SEQEND
  0
POLYLINE
  8
ASSEMBLY
 66
1
 70
0
 40
0.000000
 41
0.000000
 39
0.000000
  0
VERTEX
  8
ASSEMBLY
 10
2970.669000
 20
2498.976000
 40
8.000000
 41
8.000000
 42
0.000000
  0
VERTEX
  8
ASSEMBLY
 10
2679.331000
 20
2498.976000
 40
8.000000
 41
8.000000
 42
0.000000
  0
SEQEND
  0
POLYLINE
  8
ASSEMBLY
 66
1
 70
0
 40
0.000000
 41
0.000000
 39
0.000000
  0
VERTEX
  8
ASSEMBLY
 10
2970.669000
 20
2302.126000
 40
8.000000
 41
8.000000
 42
0.000000
  0
VERTEX
  8
ASSEMBLY
 10
2919.488000
 20
2302.126000
 40
8.000000
 41
8.000000
 42
0.000000
  0
VERTEX
  8
ASSEMBLY
 10
2919.488000
 20
2345.433000
 40
8.000000
 41
8.000000
 42
0.000000
  0
VERTEX
  8
ASSEMBLY
 10
2730.512000
 20
2345.433000
 40
8.000000
 41
8.000000
 42
0.000000
  0
VERTEX
  8
ASSEMBLY
 10
2730.512000
 20
2302.126000
 40
8.000000
 41
8.000000
 42
0.000000
  0
VERTEX
  8
ASSEMBLY
 10
2679.295000
 20
2302.110000
 40
8.000000
 41
8.000000
 42
0.000000
  0
VERTEX
  8
ASSEMBLY
 10
2679.295000
 20
2538.378000
 40
8.000000
 41
8.000000
 42
0.000000
  0
VERTEX
  8
ASSEMBLY
 10
2663.543000
 20
2554.130000
 40
8.000000
 41
8.000000
 42
0.000000
  0
VERTEX
  8
ASSEMBLY
 10
2663.543000
 20
2562.008000
 40
8.000000
 41
8.000000
 42
0.000000
  0
VERTEX
  8
ASSEMBLY
 10
2669.449000
 20
2562.008000
 40
8.000000
 41
8.000000
 42
0.000000
  0
VERTEX
  8
ASSEMBLY
 10
2693.079000
 20
2538.378000
 40
8.000000
 41
8.000000
 42
0.000000
  0
VERTEX
  8
ASSEMBLY
 10
2706.890000
 20
2538.346000
 40
8.000000
 41
8.000000
 42
0.000000
  0
VERTEX
  8
ASSEMBLY
 10
2706.890000
 20
2554.094000
 40
8.000000
 41
8.000000
 42
0.000000
  0
VERTEX
  8
ASSEMBLY
 10
2714.764000
 20
2561.969000
 40
8.000000
 41
8.000000
 42
0.000000
  0
VERTEX
  8
ASSEMBLY
 10
2935.236000
 20
2561.969000
 40
8.000000
 41
8.000000
 42
0.000000
  0
VERTEX
  8
ASSEMBLY
 10
2943.110000
 20
2554.094000
 40
8.000000
 41
8.000000
 42
0.000000
  0
VERTEX
  8
ASSEMBLY
 10
2943.110000
 20
2538.346000
 40
8.000000
 41
8.000000
 42
0.000000
  0
SEQEND
  0
TEXT
  8
ASSEMBLY
 10
2920.000000
 20
2210.000000
 11
0.000000
 21
0.000000
 40
30.000000
 41
0.666667
 50
90.000000
  7
STANDARD
 71
0
 72
0
  1
VCC
 73
0
  0
TEXT
  8
ASSEMBLY
 10
2800.000000
 20
2230.000000
 11
0.000000
 21
0.000000
 40
30.000000
 41
0.666667
 50
90.000000
  7
STANDARD
 71
0
 72
0
  1
ID
 73
0
  0
TEXT
  8
ASSEMBLY
 10
2760.000000
 20
2210.000000
 11
0.000000
 21
0.000000
 40
30.000000
 41
0.666667
 50
90.000000
  7
STANDARD
 71
0
 72
0
  1
GND
 73
0
  0
TEXT
  8
ASSEMBLY
 10
2840.000000
 20
2235.000000
 11
0.000000
 21
0.000000
 40
30.000000
 41
0.666667
 50
90.000000
  7
STANDARD
 71
0
 72
0
  1
D+
 73
0
  0
TEXT
  8
ASSEMBLY
 10
2880.000000
 20
2235.000000
 11
0.000000
 21
0.000000
 40
30.000000
 41
0.666667
 50
90.000000
  7
STANDARD
 71
0
 72
0
  1
D-
 73
0
  0
POLYLINE
  8
ASSEMBLY
 66
1
 70
0
 40
0.000000
 41
0.000000
 39
0.000000
  0
VERTEX
  8
ASSEMBLY
 10
3890.000000
 20
2527.165000
 40
6.000000
 41
6.000000
 42
0.000000
  0
VERTEX
  8
ASSEMBLY
 10
4190.000000
 20
2527.165000
 40
6.000000
 41
6.000000
 42
0.000000
  0
VERTEX
  8
ASSEMBLY
 10
4190.000000
 20
2503.543000
 40
6.000000
 41
6.000000
 42
0.000000
  0
VERTEX
  8
ASSEMBLY
 10
4390.000000
 20
2503.543000
 40
6.000000
 41
6.000000
 42
0.000000
  0
VERTEX
  8
ASSEMBLY
 10
4390.000000
 20
2527.165000
 40
6.000000
 41
6.000000
 42
0.000000
  0
VERTEX
  8
ASSEMBLY
 10
4690.000000
 20
2527.165000
 40
6.000000
 41
6.000000
 42
0.000000
  0
VERTEX
  8
ASSEMBLY
 10
4690.000000
 20
2172.835000
 40
6.000000
 41
6.000000
 42
0.000000
  0
VERTEX
  8
ASSEMBLY
 10
3890.000000
 20
2172.835000
 40
6.000000
 41
6.000000
 42
0.000000
  0
VERTEX
  8
ASSEMBLY
 10
3890.000000
 20
2527.165000
 40
6.000000
 41
6.000000
 42
0.000000
  0
SEQEND
  0
POLYLINE
  8
ASSEMBLY
 66
1
 70
0
 40
0.000000
 41
0.000000
 39
0.000000
  0
VERTEX
  8
ASSEMBLY
 10
1121.614000
 20
1488.346000
 40
6.000000
 41
6.000000
 42
0.000000
  0
VERTEX
  8
ASSEMBLY
 10
1121.614000
 20
2523.780000
 40
6.000000
 41
6.000000
 42
0.000000
  0
VERTEX
  8
ASSEMBLY
 10
1883.425000
 20
2523.780000
 40
6.000000
 41
6.000000
 42
0.000000
  0
VERTEX
  8
ASSEMBLY
 10
1883.425000
 20
1510.000000
 40
6.000000
 41
6.000000
 42
0.000000
  0
VERTEX
  8
ASSEMBLY
 10
1785.000000
 20
1510.000000
 40
6.000000
 41
6.000000
 42
0.000000
  0
VERTEX
  8
ASSEMBLY
 10
1785.000000
 20
1596.614000
 40
6.000000
 41
6.000000
 42
0.000000
  0
VERTEX
  8
ASSEMBLY
 10
1335.000000
 20
1596.614000
 40
6.000000
 41
6.000000
 42
0.000000
  0
VERTEX
  8
ASSEMBLY
 10
1335.000000
 20
1488.346000
 40
6.000000
 41
6.000000
 42
0.000000
  0
VERTEX
  8
ASSEMBLY
 10
1121.614000
 20
1488.346000
 40
6.000000
 41
6.000000
 42
0.000000
  0
SEQEND
  0
POLYLINE
  8
ASSEMBLY
 66
1
 70
0
 40
0.000000
 41
0.000000
 39
0.000000
  0
VERTEX
  8
ASSEMBLY
 10
1860.984000
 20
2527.717000
 40
6.000000
 41
6.000000
 42
0.000000
  0
VERTEX
  8
ASSEMBLY
 10
1860.984000
 20
2606.457000
 40
6.000000
 41
6.000000
 42
0.000000
  0
VERTEX
  8
ASSEMBLY
 10
1262.559000
 20
2606.457000
 40
6.000000
 41
6.000000
 42
0.000000
  0
VERTEX
  8
ASSEMBLY
 10
1262.559000
 20
2527.717000
 40
6.000000
 41
6.000000
 42
0.000000
  0
SEQEND
  0
POLYLINE
  8
ASSEMBLY
 66
1
 70
0
 40
0.000000
 41
0.000000
 39
0.000000
  0
VERTEX
  8
ASSEMBLY
 10
4710.000000
 20
155.000000
 40
6.000000
 41
6.000000
 42
0.000000
  0
VERTEX
  8
ASSEMBLY
 10
3910.000000
 20
155.000000
 40
6.000000
 41
6.000000
 42
0.000000
  0
VERTEX
  8
ASSEMBLY
 10
3910.000000
 20
255.000000
 40
6.000000
 41
6.000000
 42
0.000000
  0
VERTEX
  8
ASSEMBLY
 10
4710.000000
 20
255.000000
 40
6.000000
 41
6.000000
 42
0.000000
  0
VERTEX
  8
ASSEMBLY
 10
4710.000000
 20
155.000000
 40
6.000000
 41
6.000000
 42
0.000000
  0
SEQEND
  0
POLYLINE
  8
ASSEMBLY
 66
1
 70
0
 40
0.000000
 41
0.000000
 39
0.000000
  0
VERTEX
  8
ASSEMBLY
 10
4710.000000
 20
1955.000000
 40
6.000000
 41
6.000000
 42
0.000000
  0
VERTEX
  8
ASSEMBLY
 10
3910.000000
 20
1955.000000
 40
6.000000
 41
6.000000
 42
0.000000
  0
VERTEX
  8
ASSEMBLY
 10
3910.000000
 20
2055.000000
 40
6.000000
 41
6.000000
 42
0.000000
  0
VERTEX
  8
ASSEMBLY
 10
4710.000000
 20
2055.000000
 40
6.000000
 41
6.000000
 42
0.000000
  0
VERTEX
  8
ASSEMBLY
 10
4710.000000
 20
1955.000000
 40
6.000000
 41
6.000000
 42
0.000000
  0
SEQEND
  0
POLYLINE
  8
ASSEMBLY
 66
1
 70
0
 40
0.000000
 41
0.000000
 39
0.000000
  0
VERTEX
  8
ASSEMBLY
 10
3854.291000
 20
2170.709000
 40
6.000000
 41
6.000000
 42
0.000000
  0
VERTEX
  8
ASSEMBLY
 10
3515.709000
 20
2170.709000
 40
6.000000
 41
6.000000
 42
0.000000
  0
VERTEX
  8
ASSEMBLY
 10
3515.709000
 20
2509.291000
 40
6.000000
 41
6.000000
 42
0.000000
  0
VERTEX
  8
ASSEMBLY
 10
3854.291000
 20
2509.291000
 40
6.000000
 41
6.000000
 42
0.000000
  0
VERTEX
  8
ASSEMBLY
 10
3854.291000
 20
2170.709000
 40
6.000000
 41
6.000000
 42
0.000000
  0
SEQEND
  0
POLYLINE
  8
ASSEMBLY
 66
1
 70
0
 40
0.000000
 41
0.000000
 39
0.000000
  0
VERTEX
  8
ASSEMBLY
 10
4895.000000
 20
2405.000000
 40
6.000000
 41
6.000000
 42
1.000000
  0
VERTEX
  8
ASSEMBLY
 10
4745.000000
 20
2405.000000
 40
6.000000
 41
6.000000
 42
1.000000
  0
VERTEX
  8
ASSEMBLY
 10
4895.000000
 20
2405.000000
 40
6.000000
 41
6.000000
 42
0.000000
  0
SEQEND
  0
POLYLINE
  8
ASSEMBLY
 66
1
 70
0
 40
0.000000
 41
0.000000
 39
0.000000
  0
VERTEX
  8
ASSEMBLY
 10
4895.000000
 20
120.000000
 40
6.000000
 41
6.000000
 42
1.000000
  0
VERTEX
  8
ASSEMBLY
 10
4745.000000
 20
120.000000
 40
6.000000
 41
6.000000
 42
1.000000
  0
VERTEX
  8
ASSEMBLY
 10
4895.000000
 20
120.000000
 40
6.000000
 41
6.000000
 42
0.000000
  0
SEQEND
  0
POLYLINE
  8
ASSEMBLY
 66
1
 70
0
 40
0.000000
 41
0.000000
 39
0.000000
  0
VERTEX
  8
ASSEMBLY
 10
1030.000000
 20
120.000000
 40
6.000000
 41
6.000000
 42
1.000000
  0
VERTEX
  8
ASSEMBLY
 10
880.000000
 20
120.000000
 40
6.000000
 41
6.000000
 42
1.000000
  0
VERTEX
  8
ASSEMBLY
 10
1030.000000
 20
120.000000
 40
6.000000
 41
6.000000
 42
0.000000
  0
SEQEND
  0
POLYLINE
  8
ASSEMBLY
 66
1
 70
0
 40
0.000000
 41
0.000000
 39
0.000000
  0
VERTEX
  8
ASSEMBLY
 10
1025.000000
 20
2405.000000
 40
6.000000
 41
6.000000
 42
1.000000
  0
VERTEX
  8
ASSEMBLY
 10
875.000000
 20
2405.000000
 40
6.000000
 41
6.000000
 42
1.000000
  0
VERTEX
  8
ASSEMBLY
 10
1025.000000
 20
2405.000000
 40
6.000000
 41
6.000000
 42
0.000000
  0
SEQEND
  0
POLYLINE
  8
ASSEMBLY
 66
1
 70
0
 40
0.000000
 41
0.000000
 39
0.000000
  0
VERTEX
  8
ASSEMBLY
 10
4762.835000
 20
-259.528000
 40
0.000000
 41
0.000000
 42
0.000000
  0
VERTEX
  8
ASSEMBLY
 10
4940.000000
 20
-230.000000
 40
0.000000
 41
0.000000
 42
0.000000
  0
VERTEX
  8
ASSEMBLY
 10
4762.835000
 20
-200.472000
 40
0.000000
 41
0.000000
 42
0.000000
  0
VERTEX
  8
ASSEMBLY
 10
4762.835000
 20
-259.528000
 40
0.000000
 41
0.000000
 42
0.000000
  0
SEQEND
  0
POLYLINE
  8
ASSEMBLY
 66
1
 70
0
 40
0.000000
 41
0.000000
 39
0.000000
  0
VERTEX
  8
ASSEMBLY
 10
2642.500000
 20
-230.000000
 40
0.000000
 41
0.000000
 42
0.000000
  0
VERTEX
  8
ASSEMBLY
 10
4940.000000
 20
-230.000000
 40
0.000000
 41
0.000000
 42
0.000000
  0
SEQEND
  0
POLYLINE
  8
ASSEMBLY
 66
1
 70
0
 40
0.000000
 41
0.000000
 39
0.000000
  0
VERTEX
  8
ASSEMBLY
 10
177.165000
 20
-200.472000
 40
0.000000
 41
0.000000
 42
0.000000
  0
VERTEX
  8
ASSEMBLY
 10
0.000000
 20
-230.000000
 40
0.000000
 41
0.000000
 42
0.000000
  0
VERTEX
  8
ASSEMBLY
 10
177.165000
 20
-259.528000
 40
0.000000
 41
0.000000
 42
0.000000
  0
VERTEX
  8
ASSEMBLY
 10
177.165000
 20
-200.472000
 40
0.000000
 41
0.000000
 42
0.000000
  0
SEQEND
  0
POLYLINE
  8
ASSEMBLY
 66
1
 70
0
 40
0.000000
 41
0.000000
 39
0.000000
  0
VERTEX
  8
ASSEMBLY
 10
1917.500000
 20
-230.000000
 40
0.000000
 41
0.000000
 42
0.000000
  0
VERTEX
  8
ASSEMBLY
 10
0.000000
 20
-230.000000
 40
0.000000
 41
0.000000
 42
0.000000
  0
SEQEND
  0
POLYLINE
  8
ASSEMBLY
 66
1
 70
0
 40
0.000000
 41
0.000000
 39
0.000000
  0
VERTEX
  8
ASSEMBLY
 10
4940.000000
 20
-48.425000
 40
0.000000
 41
0.000000
 42
0.000000
  0
VERTEX
  8
ASSEMBLY
 10
4940.000000
 20
-328.425000
 40
0.000000
 41
0.000000
 42
0.000000
  0
SEQEND
  0
POLYLINE
  8
ASSEMBLY
 66
1
 70
0
 40
0.000000
 41
0.000000
 39
0.000000
  0
VERTEX
  8
ASSEMBLY
 10
0.000000
 20
-48.425000
 40
0.000000
 41
0.000000
 42
0.000000
  0
VERTEX
  8
ASSEMBLY
 10
0.000000
 20
-328.425000
 40
0.000000
 41
0.000000
 42
0.000000
  0
SEQEND
  0
TEXT
  8
ASSEMBLY
 10
1992.500000
 20
-280.000000
 11
0.000000
 21
0.000000
 40
100.000000
 41
1.000000
 50
0.000000
  7
STANDARD
 71
0
 72
0
  1
125.48
 73
0
  0
POLYLINE
  8
ASSEMBLY
 66
1
 70
0
 40
0.000000
 41
0.000000
 39
0.000000
  0
VERTEX
  8
ASSEMBLY
 10
-290.472000
 20
2347.835000
 40
0.000000
 41
0.000000
 42
0.000000
  0
VERTEX
  8
ASSEMBLY
 10
-320.000000
 20
2525.000000
 40
0.000000
 41
0.000000
 42
0.000000
  0
VERTEX
  8
ASSEMBLY
 10
-349.528000
 20
2347.835000
 40
0.000000
 41
0.000000
 42
0.000000
  0
VERTEX
  8
ASSEMBLY
 10
-290.472000
 20
2347.835000
 40
0.000000
 41
0.000000
 42
0.000000
  0
SEQEND
  0
POLYLINE
  8
ASSEMBLY
 66
1
 70
0
 40
0.000000
 41
0.000000
 39
0.000000
  0
VERTEX
  8
ASSEMBLY
 10
-320.000000
 20
1607.500000
 40
0.000000
 41
0.000000
 42
0.000000
  0
VERTEX
  8
ASSEMBLY
 10
-320.000000
 20
2525.000000
 40
0.000000
 41
0.000000
 42
0.000000
  0
SEQEND
  0
POLYLINE
  8
ASSEMBLY
 66
1
 70
0
 40
0.000000
 41
0.000000
 39
0.000000
  0
VERTEX
  8
ASSEMBLY
 10
-349.528000
 20
177.165000
 40
0.000000
 41
0.000000
 42
0.000000
  0
VERTEX
  8
ASSEMBLY
 10
-320.000000
 20
0.000000
 40
0.000000
 41
0.000000
 42
0.000000
  0
VERTEX
  8
ASSEMBLY
 10
-290.472000
 20
177.165000
 40
0.000000
 41
0.000000
 42
0.000000
  0
VERTEX
  8
ASSEMBLY
 10
-349.528000
 20
177.165000
 40
0.000000
 41
0.000000
 42
0.000000
  0
SEQEND
  0
POLYLINE
  8
ASSEMBLY
 66
1
 70
0
 40
0.000000
 41
0.000000
 39
0.000000
  0
VERTEX
  8
ASSEMBLY
 10
-320.000000
 20
982.500000
 40
0.000000
 41
0.000000
 42
0.000000
  0
VERTEX
  8
ASSEMBLY
 10
-320.000000
 20
0.000000
 40
0.000000
 41
0.000000
 42
0.000000
  0
SEQEND
  0
POLYLINE
  8
ASSEMBLY
 66
1
 70
0
 40
0.000000
 41
0.000000
 39
0.000000
  0
VERTEX
  8
ASSEMBLY
 10
-48.425000
 20
0.000000
 40
0.000000
 41
0.000000
 42
0.000000
  0
VERTEX
  8
ASSEMBLY
 10
-418.425000
 20
0.000000
 40
0.000000
 41
0.000000
 42
0.000000
  0
SEQEND
  0
POLYLINE
  8
ASSEMBLY
 66
1
 70
0
 40
0.000000
 41
0.000000
 39
0.000000
  0
VERTEX
  8
ASSEMBLY
 10
-48.425000
 20
2525.000000
 40
0.000000
 41
0.000000
 42
0.000000
  0
VERTEX
  8
ASSEMBLY
 10
-418.425000
 20
2525.000000
 40
0.000000
 41
0.000000
 42
0.000000
  0
SEQEND
  0
TEXT
  8
ASSEMBLY
 10
-270.000000
 20
1057.500000
 11
0.000000
 21
0.000000
 40
100.000000
 41
1.000000
 50
90.000000
  7
STANDARD
 71
0
 72
0
  1
64.13
 73
0
  0
POLYLINE
  8
ASSEMBLY
 66
1
 70
1
 40
0.000000
 41
0.000000
 39
0.000000
  0
VERTEX
  8
ASSEMBLY
 10
0.000000
 20
2475.000000
 40
0.000000
 41
0.000000
 42
0.000000
  0
VERTEX
  8
ASSEMBLY
 10
0.000000
 20
50.000000
 40
0.000000
 41
0.000000
 42
0.000000
  0
VERTEX
  8
ASSEMBLY
 10
50.000000
 20
0.000000
 40
0.000000
 41
0.000000
 42
0.000000
  0
VERTEX
  8
ASSEMBLY
 10
4890.000000
 20
0.000000
 40
0.000000
 41
0.000000
 42
0.000000
  0
VERTEX
  8
ASSEMBLY
 10
4940.000000
 20
50.000000
 40
0.000000
 41
0.000000
 42
0.000000
  0
VERTEX
  8
ASSEMBLY
 10
4940.000000
 20
2475.000000
 40
0.000000
 41
0.000000
 42
0.000000
  0
VERTEX
  8
ASSEMBLY
 10
4890.000000
 20
2525.000000
 40
0.000000
 41
0.000000
 42
0.000000
  0
VERTEX
  8
ASSEMBLY
 10
50.000000
 20
2525.000000
 40
0.000000
 41
0.000000
 42
0.000000
  0
SEQEND
  0
ENDSEC
  0
EOF
